<svg xmlns="http://www.w3.org/2000/svg" viewBox="0 0 1920 712">
  <defs>
    <style>
      .default-svg-fill {
        fill: #5f1e41;
      }
    </style>
  </defs>

  <path
    class="default-svg-fill"
    d="M1920-396v577.3a146.5 146.5 0 0 0-97.6 129 110.2 110.2 0 0 0-76.3 22.6c-21.2-56-74-95.8-138.9-95.8s-119.4 40-140.3 99.6a85 85 0 0 0-104.2 30.6 110.8 110.8 0 0 0-161.6 65A177.8 177.8 0 0 0 1050 471 174.4 174.4 0 0 0 926 362.2l676-167.1c11.9-2.4 28.7-6.7 31-7.7a326 326 0 0 0 22.7-19.8c4.4.4 8.4-.2 11.2-2.6 3.2-2.8 4.8-5.2 5.4-7 40.2-8.3 81-17 103.6-22.7 12.8-3.2 48-15 51-26.6 1.7-6.3-9-8.8-13.4-11l-.4-.2c-9.1-5-17.1-8.7-28-6.3l-219.8 48.9c-6 1.3-12.4.3-17.7-2.8a247 247 0 0 1-28.4-18.9c-11-9.2-23.4-21.2-23.4-21.2l-20.2 6-635.6 157.2a157.8 157.8 0 0 0-194.9-63.1 119.9 119.9 0 0 0-201-116.8A135.4 135.4 0 0 0 317.4 9.2 246.2 246.2 0 0 0 75.9-189h-3.8C72-240.5 44.6-288 0-313.4V-396h1920Z"
  />
  <path
    class="default-svg-fill"
    d="m1610.6 170.6-17 21-680.3 168.2c-16.8-2.6-33.9-2.7-50.7-.3.5-5.5.8-11 .8-16.4v-1.5L1536.7 175c20.6 2.7 41.6 2 62-2l11.9-2.5ZM1531.5 174.3 863.3 339.5a157 157 0 0 0-20.4-74.2l635.4-157 23.6 46-14.6 3.2a3.6 3.6 0 0 0 0 7l31.4 7.4c4.2 1 8.5 1.7 12.8 2.4ZM1705.7 119.7a2.5 2.5 0 1 0-3-1.9 2.5 2.5 0 0 0 3 1.9ZM1726.6 115a2.5 2.5 0 1 0-3-1.9 2.5 2.5 0 0 0 3 2ZM1716.1 117.4a2.5 2.5 0 1 0-3-1.9 2.5 2.5 0 0 0 3 1.9ZM1637.2 132.5a2.5 2.5 0 1 1-4.8 1.1 2.5 2.5 0 0 1 4.8-1ZM1566.8 148.3a2.5 2.5 0 1 1-4.8 1 2.5 2.5 0 0 1 4.8-1ZM1658 127.8a2.5 2.5 0 1 1-4.7 1.1 2.5 2.5 0 0 1 4.8-1ZM1598.1 141.3a2.5 2.5 0 1 1-4.8 1 2.5 2.5 0 0 1 4.8-1ZM1587.7 143.6a2.5 2.5 0 1 1-4.8 1 2.5 2.5 0 0 1 4.8-1ZM1666.6 128.5h-.5c-1.1 0-2.1-.8-2.4-2a2.5 2.5 0 1 1 3 2ZM1577.2 146a2.5 2.5 0 1 1-4.8 1 2.5 2.5 0 0 1 4.8-1ZM1647.6 130.2a2.5 2.5 0 1 1-4.8 1 2.5 2.5 0 0 1 4.8-1ZM1737 112.7a2.5 2.5 0 1 0-3-1.9 2.5 2.5 0 0 0 3 1.9ZM1747.5 110.3a2.5 2.5 0 1 0-3-1.8 2.5 2.5 0 0 0 3 1.8ZM1757.9 108a2.5 2.5 0 1 0-3-1.9 2.5 2.5 0 0 0 3 1.9ZM1768.3 105.7a2.5 2.5 0 1 0-2.9-1.9 2.5 2.5 0 0 0 3 1.9ZM1798.2 102.5c-3 .6-5.9-1.2-6.5-4.2v-.6c0-1.3.8-2.5 2.2-2.8 2.9-.6 5.8 1.2 6.5 4.1.3 1.6-.7 3.1-2.2 3.4ZM230.9 324.6l-12.9 16-9-13a2.7 2.7 0 0 0-4.3 3l11 16c.4.6 1.2 1 2 1h.2c.8 0 1.5-.3 2-1L235 328a2.7 2.7 0 1 0-4-3.4l-.2.1Z"
  />
  <path
    class="default-svg-fill"
    d="M240.5 581.7V576a2.7 2.7 0 1 1 5.3 0v5.7h-5.3Zm-12.7 0V576a2.7 2.7 0 1 1 5.3 0v5.7h-5.3Zm32-15.8V393.6h4c1.4 0 2.6-1.2 2.6-2.7v-91.8c0-1.5-1.1-2.7-2.6-2.7h-4v-28.3h1.8a2.7 2.7 0 0 0 1.9-4.6c-.1 0-2.7-2.5-6.3-6.6l.2-.7v-21.7a2.7 2.7 0 1 0-5.3 0v16a80.7 80.7 0 0 1-13.3-24.3v-21.8h.5c1.4 0 2.6-1.2 2.6-2.6V196c0-1.5-1.2-2.7-2.6-2.7h-1.7c-3-5-14.7-25.7-17-56h.6a2.7 2.7 0 1 0 0-5.3h-.7v-17.8a2.7 2.7 0 1 0-5.4 0V132h-.7a2.7 2.7 0 1 0 0 5.3h.5a129 129 0 0 1-17 56h-1.6a2.7 2.7 0 0 0-2.6 2.7v5.8c0 1.4 1.2 2.6 2.6 2.6h.5v21.8c-2.7 9-8.1 17.5-13.2 24.3v-16a2.7 2.7 0 1 0-5.4 0v21.7l.2.7c-3.6 4-6.2 6.5-6.2 6.6-.8.8-1 2-.7 3 .4 1 1.4 1.6 2.5 1.6h1.7v28.3H172a2.7 2.7 0 0 0-2.7 2.7v91.8c0 1.5 1.2 2.7 2.7 2.7h3.8v181l-17.3-.1v-68H94.5v36.2H78.3V571H52.7V451H0v433h1920V559.4h-53.5V591h-21v47.8H1825v-63.5h-16.2v-53h-51.4v155.1h-25.1v-119h-9.5v-70.3h-42.5v103h-11.5v-62h-43.2v199.6h-.9c-10-57.6-22.1-130.2-22.1-142v-64.4c0-12 18.3-121.7 20.7-136.6 10-.2 19.9-2 29.3-5.3a2 2 0 0 0 0-3.8l-6.3-2.6 2.8-7.3c6.7-.4 15.2-3.5 15.6-3.7a2 2 0 0 0 1.3-1.8 2 2 0 0 0-1.2-2 67 67 0 0 0-16.6-5.1h-3.8l.7-3.9h2.6a2 2 0 0 0 .8-3.8l-37.8-15.1a.7.7 0 0 1-.5-.7c0-.2.2-.5.4-.6l7.6-4.2a2 2 0 0 0 .7-2.7 2 2 0 0 0-1.3-1l-5.8-1.4-1.7-3.8a2 2 0 0 0-1.9-1.2h-10l-.9-3.7a2 2 0 0 0-2-1.6h-1.9v-32a2 2 0 0 0-4 0v32h-2a2 2 0 0 0-2 1.5l-.8 3.8h-10a2 2 0 0 0-1.9 1.2l-1.7 3.8-5.9 1.4a2 2 0 0 0-1.5 1.6 2 2 0 0 0 1 2l7.6 4.3c.2.1.3.4.3.6 0 .3-.2.5-.4.6l-37.8 15.1a2 2 0 0 0-1.1 2.7 2 2 0 0 0 1.9 1.2h2.5l.8 3.9h-3.9c-4.5 0-15.3 4.6-16.5 5.1a2 2 0 0 0-1.3 2 2 2 0 0 0 1.4 1.8c.3.1 8.8 3.3 15.6 3.7l2.7 7.3-6.3 2.6a2 2 0 0 0 0 3.8c9.5 3.2 19.3 5 29.3 5.3 2.5 14.9 20.8 124.5 20.8 136.6v64.3l-17.8 116.9h-15.8V563h-43.2v28h-11.5V488h-42.5v70.4h-9.5v119h-25V522.1h-51.5v53h-16.1v63.6h-20.5V591h-21.1v-31.5h-47v110.1h-23.4v-53.4h-31.6V505.7H1149v203.8h-27v-120h-45v15.9h-9.4v34.4h-16v-22.4h-61.3v43.2H979v-81.7h-61.2V622h-22.1v104.2H874V537.4h-11.7v-32.2l-20.5-20.5h-30v94.2h-23.3v62h-38v-16.7H741v63.4h-12.4v41.1H716v-46h-11.7v-28.2h-11v8.3h-7v17.7h-32.4v43.7h-14l2.4 5.8a2.2 2.2 0 0 1-2 3h-35c-1 0-1.8-.6-2-1.5l-2.2-7.2h-6.3v4.4h-39.5v-19.3h-17.1l-.1.1h-.2l.1-.1h.2c2.5-2.6 3.6-6.2 3-9.7a218 218 0 0 0 15.4-1.4 12 12 0 1 0 23.3-4.1 216 216 0 0 0 11.3-3l10 33.2h38.7l-19.1-44c3.5-1.5 6.9-3.2 10.3-5l.7 1.6a12 12 0 1 0 19.8-13.4c4.3-2.8 8.5-5.7 12.6-8.8l1 1.4a12 12 0 1 0 17.1-16.6 236 236 0 0 0 11-11l1.2 1.3a12 12 0 1 0 14-19.3c3-4.2 6-8.4 8.8-12.7l1.5 1a12 12 0 1 0 10.4-21.5c2.4-4.5 4.5-9.2 6.5-14l1.5.7a12 12 0 0 0 8.4-22.4h-.2l-1.6-.5c1.5-4.9 2.9-9.9 4-15 .6.3 1.1.4 1.6.5a12 12 0 1 0 2.7-23.7h-.1c.6-5 1-10.2 1.3-15.4l1.7.1a12 12 0 0 0 0-24l-1.7.2c-.2-5.2-.7-10.3-1.3-15.4l1.6-.1a12 12 0 1 0-5.7-23.2c-1.2-5-2.6-10-4-15l1.6-.3a12 12 0 0 0-8-22.6l-.2.1-1.5.7c-2-4.7-4.3-9.4-6.6-14l1.6-.7a12 12 0 1 0-13.4-19.8c-2.9-4.3-5.8-8.5-9-12.6l1.5-1a12 12 0 1 0-16.6-17 236 236 0 0 0-11-11c2.4-2 4-6.2 4-7.9a14 14 0 0 0-.8-5.4c-.7-1.8-2-3.6-3.4-4.9a12 12 0 0 0-18 3 232 232 0 0 0-12.6-9l1-1.3a12 12 0 1 0-21.4-10.5c-4.6-2.3-9.3-4.5-14-6.5l.7-1.5a12 12 0 1 0-23-6.6c-4.9-1.5-9.8-2.9-14.9-4l.4-1.6a12 12 0 0 0-23.5-4.2l-.2 1.6c-5-.6-10.2-1-15.4-1.3l.2-1.7a12 12 0 1 0-23.8 1.7c-5.2.3-10.4.7-15.5 1.3v-1.6a12 12 0 1 0-23.2 5.8c-5 1.1-10 2.5-15 4 0-.6-.2-1.1-.4-1.6a12 12 0 1 0-21.8 9.7c-4.7 2-9.4 4.2-14 6.5a12 12 0 1 0-20.4 11.9c-4.4 2.8-8.6 5.8-12.7 8.9l-1-1.5a12 12 0 1 0-17 16.7 236 236 0 0 0-11 11l-1.3-1.4a12 12 0 1 0-14 19.4 232 232 0 0 0-8.8 12.7l-1.4-1a12 12 0 1 0-10.4 21.4c-2.4 4.6-4.6 9.3-6.6 14l-1.5-.7a12 12 0 0 0-8.4 22.4h.2c.5.3 1 .4 1.6.5-1.5 5-2.8 9.9-4 15l-1.6-.5a12 12 0 1 0-2.7 23.7h.2c-.6 5.1-1 10.3-1.4 15.4l-1.6-.1a12 12 0 1 0 1.6 23.8c.3 5.2.7 10.3 1.4 15.4l-1.7.1a12 12 0 1 0 5.8 23.2c1.2 5 2.5 10 4 15-.5 0-1 .2-1.6.4a12 12 0 1 0 9.7 21.7c2 4.8 4.2 9.5 6.5 14l-1.5.8a12 12 0 1 0 13.4 19.7c2.8 4.3 5.8 8.6 8.9 12.7l-1.5 1a12 12 0 1 0 16.7 17c2.7 3 5.5 5.8 8.4 8.6h-22.3v36.1h-11.6V657h-30.2v-75.4h-11.7V566h-38.3Zm-7.3-179.6a1.8 1.8 0 0 1 3.6 0v2.4h-3.7v-2.4Zm-69.1 2.3h-3.7v-2.4a1.8 1.8 0 0 1 3.7 0v2.4ZM15 577.4H8.9V567h6.2v10.4Zm0-20H8.9V547h6.2v10.4Zm29.8-63.6h-6.1v-10.4h6.1v10.4Zm0-20h-6.1v-10.4h6.1v10.3Zm59.3 173.7H98v-10.3h6.2v10.3Zm14.3-40h-6.1V597h6.1v10.3Zm0-20h-6.1V577h6.1v10.4Zm14.4-60.2h-6.1v-10.4h6.1v10.4Zm14.4 40h-6.2V557h6.2v10.4Zm0-20h-6.2V537h6.2v10.3Zm0-20h-6.2v-10.4h6.2v10.4Zm16.4 113.9h-2.6V584h2.7v57Zm7.6 0h-2.7V584h2.7v57Zm46.6-267a29 29 0 1 1 0-58.2 29 29 0 0 1 0 58.2Zm0 250a2.7 2.7 0 0 1-2.7-2.6V576a2.7 2.7 0 1 1 5.4 0v45.5c0 1.5-1.2 2.6-2.7 2.6Zm2.7 12.2v9a2.7 2.7 0 1 1-5.4 0v-9a2.7 2.7 0 1 1 5.4 0Zm-2.7-72.5a2.7 2.7 0 0 1-2.7-2.7v-9a2.7 2.7 0 1 1 5.4 0v9c0 1.5-1.2 2.7-2.7 2.7Zm0-23.8a2.7 2.7 0 0 1-2.7-2.6v-45.6a2.7 2.7 0 1 1 5.4 0v45.6c0 1.4-1.2 2.6-2.7 2.6Zm0-60.3a2.7 2.7 0 0 1-2.7-2.7v-9a2.7 2.7 0 1 1 5.4 0v9c0 1.5-1.2 2.7-2.7 2.7Zm0-23.8a2.7 2.7 0 0 1-2.7-2.7v-45.5a2.7 2.7 0 1 1 5.4 0v45.5c0 1.5-1.2 2.7-2.7 2.7Zm-1.8-67.3v-2.4a1.8 1.8 0 0 1 3.7 0v2.4H216Zm-3.6-2.5v2.5h-3.7v-2.5a1.8 1.8 0 0 1 3.7 0Zm-10 189.8a2.7 2.7 0 1 1 5.4 0v45.6a2.7 2.7 0 1 1-5.3 0V576Zm-1-187.4v-2.4a1.8 1.8 0 0 1 3.7 0v2.4h-3.7Zm3.7 175.3a2.7 2.7 0 0 1-2.6-2.7v-9a2.7 2.7 0 1 1 5.3 0v9c0 1.5-1.2 2.7-2.7 2.7Zm0-23.8a2.7 2.7 0 0 1-2.6-2.7V492a2.7 2.7 0 1 1 5.3 0v45.5c0 1.5-1.2 2.7-2.7 2.7Zm0-60.3a2.7 2.7 0 0 1-2.6-2.7v-9a2.7 2.7 0 1 1 5.3 0v9c0 1.5-1.2 2.7-2.7 2.7Zm0-23.8a2.7 2.7 0 0 1-2.6-2.7v-45.5a2.7 2.7 0 1 1 5.3 0v45.5c0 1.5-1.2 2.7-2.7 2.7Zm-12.6 107.8a2.7 2.7 0 0 1-2.6-2.6v-9a2.7 2.7 0 1 1 5.3 0v9c0 1.5-1.2 2.6-2.7 2.6Zm2.7 12.2v45.5a2.7 2.7 0 1 1-5.3 0V576a2.7 2.7 0 1 1 5.3 0Zm-2.7-36a2.7 2.7 0 0 1-2.6-2.6v-45.5a2.7 2.7 0 1 1 5.3 0v45.5c0 1.5-1.2 2.7-2.7 2.7Zm0-60.3a2.7 2.7 0 0 1-2.6-2.6v-9a2.7 2.7 0 1 1 5.3 0v9c0 1.4-1.2 2.6-2.7 2.6Zm0-23.8a2.7 2.7 0 0 1-2.6-2.6v-45.5a2.7 2.7 0 1 1 5.3 0v45.5c0 1.5-1.2 2.6-2.7 2.6Zm1.7-67.3v-2.4a1.8 1.8 0 0 1 3.7 0v2.4h-3.7Zm-5.5-14.5v-10.8c2.8 4.4 6.5 8 10.8 10.8h-10.8Zm25.6-81.7v-16.7a3.5 3.5 0 0 1 7 0h-.1v16.7h-7Zm18.8 268.8a2.7 2.7 0 1 1-5.3 0v-9a2.7 2.7 0 1 1 5.3 0v9Zm0-23.7a2.7 2.7 0 1 1-5.3 0v-45.6a2.7 2.7 0 1 1 5.3 0v45.6Zm0-60.4a2.7 2.7 0 1 1-5.3 0v-9a2.7 2.7 0 1 1 5.3 0v9Zm0-23.8a2.7 2.7 0 1 1-5.3 0v-45.5a2.7 2.7 0 1 1 5.3 0v45.5Zm1.1-64.6h-3.7v-2.4a1.8 1.8 0 0 1 3.7 0v2.4Zm12.7-25.3v10.8h-10.8c4.4-2.8 8-6.5 10.8-10.8Zm-9.1 25.3v-2.4a1.8 1.8 0 0 1 3.7 0v2.4h-3.7Zm8 172.6a2.7 2.7 0 1 1-5.3 0v-9a2.7 2.7 0 1 1 5.3 0v9Zm0-23.8a2.7 2.7 0 1 1-5.3 0V492a2.7 2.7 0 1 1 5.3 0v45.5Zm0-60.3a2.7 2.7 0 1 1-5.3 0v-9a2.7 2.7 0 1 1 5.3 0v9Zm0-23.8a2.7 2.7 0 1 1-5.3 0v-45.5a2.7 2.7 0 1 1 5.3 0v45.5Zm3-64.7h-3.7v-2.4a1.8 1.8 0 0 1 3.7 0v2.4Zm-3.6-116.5c2 0 3.5 1.5 3.5 3.5v16.6h-7v-16.6c0-2 1.6-3.5 3.5-3.5Zm1.6 43.7v10.8c-2.7-4.3-6.4-8-10.8-10.8H247ZM235 275.7v16.7h-6.9v-16.7a3.5 3.5 0 0 1 7 0Zm-2.6-27.8c1 0 1.9.8 1.9 1.8v5.1h-3.7v-5c0-1.1.8-2 1.8-2Zm-4.3-40.6c1 0 1.8.8 1.8 1.9v11.3h-3.7v-11.3c0-1 .9-1.9 1.9-1.9Zm-3 30.4c1 0 1.9.9 1.9 1.9v5h-3.7v-5c0-1 .8-1.9 1.8-1.9Zm-3.8-30.4c1 0 1.8.9 1.8 1.9v11.3h-3.7v-11.3c0-1 .8-1.9 1.8-1.9Zm-3.5 40.6c1 0 1.9.8 1.9 1.9v5H216v-5c0-1 .8-1.9 1.9-1.9Zm-5.2-38.7a1.8 1.8 0 0 1 3.7 0v11.3h-3.7v-11.3Zm-.2 30.4v5h-3.6v-5a1.8 1.8 0 0 1 3.6 0Zm-6.6-30.4a1.8 1.8 0 0 1 3.7 0v11.3h-3.7v-11.3Zm-2.5 38.7c1 0 1.9.8 1.9 1.8v5.1h-3.7v-5c0-1 .8-1.9 1.8-1.9Zm-2.6 27.8a3.5 3.5 0 1 1 6.9 0v16.7h-7v-16.7Zm-1 40.2c-4.4 2.8-8.1 6.5-10.9 10.8V316h10.8Zm-9.2-43.7c1.9 0 3.4 1.6 3.4 3.5v16.7H187v-16.7c0-2 1.6-3.5 3.5-3.5Zm-3.5 114a1.8 1.8 0 0 1 3.7 0v2.4H187v-2.4Zm2.8 259v-8.9a2.7 2.7 0 1 1 5.3 0v9h-5.3Zm12.7 0v-8.9a2.7 2.7 0 1 1 5.3 0v9h-5.3Zm12.6 26.1v-11.2a2.7 2.7 0 1 1 5.4 0v11.2H215Zm12-282.6h-3.8v-2.4a1.8 1.8 0 0 1 3.7 0v2.4Zm61.7 188.4h-23.6v-3.5h23.6v3.5Zm13.3 47.3h-3.9V614h4v10.4Zm0-20h-3.9V594h4v10.4Zm265.4 74.5-29.3-166.4 48.1 162a200 200 0 0 1-18.8 4.4ZM547 493.3l139.3 116.9c-7 8-14.4 15.5-22.4 22.4L547 493.3Zm113.5 142a205.7 205.7 0 0 1-25.9 18.3L543.7 496l116.8 139.3ZM550 490.2 707.3 581a205.7 205.7 0 0 1-18.2 26L549.9 490Zm2.2-3.8h-.1.1l170.7 62.2c-3.7 9.9-8.2 19.5-13.4 28.7l-157.3-90.9Zm1.3-4 179.1 31.5a204 204 0 0 1-8.2 30.6l-170.9-62.2Zm.8-4.3h181.9c-.1 10.5-1 21-2.8 31.5l-179-31.5Zm0-4.4L733.3 442c1.7 10.5 2.6 21 2.8 31.6H554.2Zm-.7-4.2L724.4 407c3.5 10 6.2 20.3 8.2 30.7l-179.1 31.6Zm-1.4-4.2 157.4-90.8c5.2 9.2 9.7 18.8 13.4 28.7l-170.8 62.1Zm-2.3-3.7 139.3-116.8c6.7 8.2 12.8 16.8 18.2 26l-157.5 90.8Zm-2.8-3.3L664 319c8 6.9 15.5 14.4 22.4 22.4L547 458.2Zm-3.3-2.7 91-157.5c9 5.4 17.7 11.5 25.9 18.2L543.7 455.5Zm-3.6-2.4v.2h-.1v-.2l62.2-170.7c9.9 3.7 19.5 8.2 28.7 13.4L540 453.1Zm29.7 238.7-1.5-8.7c6.5-1.2 13-2.7 19.3-4.5l2.5 8.5c-6.7 1.9-13.4 3.5-20.3 4.7Zm-23-181.7 84 145.6c-5.4 3.2-11.1 6-17 8.7l-67-154.3ZM619 676.5l-3.5-8.2c6-2.6 11.8-5.6 17.5-8.8l4.4 7.7c-6 3.4-12 6.5-18.4 9.3Zm22.1-11.5-4.4-7.7a210 210 0 0 0 26.5-18.6l5.8 6.8c-8.8 7.2-18.1 13.7-27.9 19.5Zm31.1-22.3-5.7-6.8c8.3-7 16-14.7 23-23l6.8 5.8a221.8 221.8 0 0 1-24 24Zm26.9-27.4-6.8-5.7c6.8-8.3 13-17.2 18.6-26.5l7.7 4.4c-5.8 9.8-12.3 19-19.5 27.8Zm21.7-31.5-7.7-4.4c5.3-9.5 10-19.3 13.7-29.4l8.4 3c-4 10.6-8.8 21-14.4 30.8Zm15.9-34.9-8.4-3c3.6-10.2 6.4-20.7 8.4-31.4l8.8 1.6c-2.1 11.1-5 22.1-8.8 32.8Zm9.5-37-8.7-1.6c1.7-10.7 2.7-21.5 2.8-32.3h8.9c-.2 11.3-1.1 22.6-3 33.8Zm3-38.3h-9c0-10.8-1-21.6-2.7-32.3l8.7-1.6c1.9 11.2 2.9 22.6 3 33.9Zm-12.6-71c3.9 10.7 6.8 21.7 8.9 32.9l-8.8 1.5c-2-10.6-4.8-21.1-8.4-31.3l8.3-3ZM721 367.8c5.6 9.8 10.4 20.1 14.4 30.7l-8.4 3c-3.8-10-8.4-19.9-13.7-29.3l7.7-4.4Zm-2.2-3.8-7.7 4.4a210 210 0 0 0-18.6-26.5l6.8-5.7c7.2 8.7 13.7 18 19.5 27.8Zm-22.3-31.1-6.8 5.7c-7.1-8.2-14.8-16-23-23l5.7-6.8c8.6 7.4 16.7 15.5 24 24ZM669 306l-5.6 6.9h-.1l-8.5-6.6c-5.8-4.4-11.9-8.4-18.1-12l4.4-7.8c8.6 5.2 27.9 19.5 27.9 19.5Zm-62.3-36a222 222 0 0 1 30.8 14.4l-4.4 7.7a210 210 0 0 0-29.4-13.8l3-8.3Zm-36.9-10.3c11.2 2 22.2 5 32.9 8.8l-3 8.3a209.6 209.6 0 0 0-31.4-8.4l1.5-8.7Zm28.3 21.2L536 451.8l31.6-179.1a204 204 0 0 1 30.6 8.2Zm-66.4-25c11.3.2 22.6 1.2 33.8 3l-1.5 8.8a213.6 213.6 0 0 0-32.3-2.8v-9Zm0 13.3c10.5.1 21 1 31.5 2.7L531.7 451V269.2Zm0 231.3 31.5 179c-10.4 1.8-21 2.7-31.5 2.8V500.5Zm0 186.2c10.8-.1 21.6-1 32.3-2.8l1.5 8.7a219.7 219.7 0 0 1-33.8 3v-9ZM527.3 256v8.9c-10.8 0-21.6 1-32.3 2.8l-1.5-8.8c11.2-1.8 22.5-2.8 33.8-2.9Zm-54.7 418.4 48.2-162-29.3 166.5a208 208 0 0 1-18.9-4.5Zm18.1 8.7-1.5 8.8c-7-1.3-13.7-3-20.3-4.8l2.5-8.5c6.3 1.8 12.8 3.3 19.3 4.5Zm14.8-213.8-179.1-31.6a204 204 0 0 1 8.2-30.6l170.9 62.2ZM336 403c3.7-10 8.2-19.5 13.4-28.8l157.4 91L336.1 403Zm168.6 70.5H322.8c.1-10.6 1-21.2 2.8-31.6l179 31.6Zm0 4.3-179 31.6c-1.8-10.5-2.7-21-2.8-31.6h181.8Zm.8 4.2-171 62.2c-3.4-10-6.2-20.2-8.1-30.6l179-31.6Zm1.3 4.2h.1l-157.4 90.8c-5.2-9.2-9.7-18.8-13.4-28.7l170.7-62.1Zm-155.1 94.6L509 490 370 606.8a205.7 205.7 0 0 1-18.2-25.9Zm0-210.3c5.4-9.1 11.5-17.8 18.2-26L509 461.6l-157.4-91Zm21-29.2c6.9-8 14.4-15.6 22.4-22.4l116.8 139.2-139.2-116.8Zm25.7-25.2c8.2-6.7 16.8-12.8 26-18.2l90.8 157.4-116.8-139.2Zm29.6-20.4c9.2-5.2 18.8-9.7 28.7-13.5L519 453.1v.1-.1L428 295.8Zm67 388c10.7 1.8 21.5 2.8 32.3 2.9v8.9a221 221 0 0 1-33.8-3l1.5-8.7Zm.7-4.2 31.6-179.1v181.8c-10.6 0-21.1-1-31.6-2.7Zm31.6-410.4V451l-31.6-179c10.5-1.8 21-2.7 31.6-2.8ZM523 451.7 460.8 281c10-3.6 20.2-6.3 30.6-8.3L523 451.7Zm-33.9-192 1.6 8.7c-10.7 2-21.1 4.8-31.3 8.4l-3.1-8.4c10.7-3.7 21.7-6.7 32.8-8.8Zm-36.9 10.2 3 8.4c-10 3.8-19.9 8.4-29.3 13.7l-4.4-7.7c9.8-5.5 20.1-10.4 30.7-14.4Zm-34.5 16.6 4.4 7.7a210.7 210.7 0 0 0-26.5 18.6l-5.7-6.8c8.7-7.2 18-13.7 27.8-19.5Zm-31 22.3 5.6 6.9c-8.2 7-15.9 14.7-23 22.9l-6.7-5.7c7.4-8.6 15.4-16.7 24-24Zm-27 27.4h.1l6.8 5.7a215.7 215.7 0 0 0-18.6 26.5l-7.7-4.4c5.8-9.8 12.3-19 19.5-27.8Zm-21.6 31.5 7.7 4.5c-5.4 9.4-10 19.2-13.8 29.4l-8.3-3c4-10.7 8.8-21 14.4-30.9Zm-15.9 35 8.4 3a207.2 207.2 0 0 0-8.4 31.3l-8.8-1.5c2-11.2 5-22.2 8.8-32.9Zm-9.5 37 8.7 1.5a213.6 213.6 0 0 0-2.8 32.4h-8.9c.1-11.4 1.1-22.7 3-33.9Zm-3 38.2h8.9c0 10.8 1 21.6 2.8 32.3l-8.7 1.6a221 221 0 0 1-3-33.9Zm12.5 71a218 218 0 0 1-8.8-32.9l8.8-1.5c2 10.6 4.8 21.1 8.4 31.3l-8.4 3Zm16 34.8h-.1a220.1 220.1 0 0 1-14.4-30.8l8.3-3c3.9 10.1 8.5 20 13.8 29.4l-7.7 4.4Zm21.6 31.6c-7.2-8.8-13.8-18-19.5-27.8l7.6-4.4a210 210 0 0 0 18.7 26.5l-6.8 5.7Zm16 113.5h-6.2v-1h6.1v1Zm0-10.8h-6.2v-10.3h6.1V718Zm15.2-80.7h-10.6a228 228 0 0 1-18-18.6l6.9-5.7c7 8.2 14.7 15.9 22.9 23l-1.2 1.3ZM372.7 610l139.2-116.8-116.8 139.2c-8-6.8-15.5-14.3-22.4-22.4Zm31.8 87.9h-6.2v-10.4h6.2V698Zm0-20h-6.2v-10.4h6.2V678Zm11.2-40.7h-15l-2.4-2 116.8-139.2-90.9 157.5c-2.9-1.7-5.7-3.5-8.5-5.4v-10.9Zm24.1 39.2c-6.2-2.9-12.4-6-18.3-9.3l4.4-7.7c5.7 3.2 11.5 6.2 17.5 8.8l-3.6 8.2Zm-11.7-20.8L512.2 510l-67.1 154.3c-5.8-2.6-11.5-5.5-17-8.6Zm92.7 53.8-.2-.1H509v19.3h-52.6l11.2-37.5c3.7 1.1 7.5 2 11.3 3l-.4 1.6A12 12 0 0 0 502 700v-1.7c5.2.6 10.3 1 15.5 1.4-.6 3.5.5 7.1 3 9.7h.1l.2.1h-.1Zm25.2 19.3h-23.5V727H546v1.7Zm0-8.3h-23.5V717H546v3.5Zm163 4h-21.7v-3.1H709v3.1Zm0-8.5h-21.7V713H709v3.1Zm0-8.5h-21.7v-3.2H709v3.2Zm0-8.5h-21.7v-3.2H709v3.2Zm106-50.4h-6.2v-10.4h6.2v10.4Zm11.8-125.2h-6.2v-10.3h6.2v10.3Zm0-20h-6.2V493h6.2v10.4Zm38.6 130.2h-6.2v-10.4h6.2v10.4Zm1.6-46h-21.8v-3.1H867v3.2Zm0-8.5h-21.8V576H867v3.1Zm0-8.5h-21.8v-3.2H867v3.2Zm0-8.5h-21.8v-3.2H867v3.2Zm0-8.6h-21.8v-3.1H867v3.1Zm44.9 170h-6.2V713h6.2v10.3Zm0-20.1h-6.2V693h6.2v10.4Zm0-40h-6.2v-10.5h6.2v10.4Zm18.1 60H924v-10.3h6.1v10.3Zm0-20H924V693h6.1v10.4Zm0-100.2H924v-10.4h6.1v10.4Zm14.4 60.1h-6.2V653h6.2v10.4Zm0-40h-6.2v-10.4h6.2v10.3Zm0-20.1h-6.2v-10.4h6.2v10.4Zm40.1 98.6H979v-10.3h5.6v10.3Zm18.1-60.1h-6.1v-10.4h6.1v10.4Zm14.4 60.1h-6.1v-10.3h6.1v10.3Zm0-40h-6.1v-10.4h6.1v10.4Zm0-20h-6.1v-10.4h6.1v10.3Zm67.3 74h-6.2v-10.4h6.2v10.4Zm0-20h-6.2v-10.4h6.2v10.4Zm29.9-63.6h-6.2v-10.4h6.2v10.4Zm0-20h-6.2v-10.4h6.2v10.4Zm71.9 29h-4.1v-7h4v7Zm0-13.5h-4.1v-7h4v7Zm12.3-95.9h-4v-7h4v7Zm0-13.4h-4v-7h4v7Zm21.3 140.5h-1.8v-38.3h1.8v38.3Zm5 0h-1.7v-38.3h1.8v38.3Zm5 0h-1.7v-38.3h1.8v38.3Zm38.5-6h-4.1v-7h4v7Zm0-13.5h-4.1v-7h4v7Zm0-13.4h-4.1v-7h4v7Zm0-13.5h-4.1v-7h4v7Zm0-13.4h-4.1v-7h4v7Zm0-13.5h-4.1v-7h4v7Zm0-13.4h-4.1v-7h4v7Zm9.6 80.7h-4.1v-7h4.1v7Zm0-13.5h-4.1v-7h4.1v7Zm0-13.4h-4.1v-7h4.1v7Zm0-13.4h-4.1v-7h4.1v7Zm0-13.5h-4.1v-7h4.1v7Zm0-13.4h-4.1v-7h4.1v7Zm0-13.5h-4.1v-7h4.1v7Zm45 82.7H1308v-2h14.7v2Zm0-5.7H1308v-2h14.7v2Zm0-5.7H1308v-2h14.7v2Zm0-5.7H1308v-2.1h14.7v2.1Zm0-5.7H1308V630h14.7v2.1Zm0-5.7H1308v-2.1h14.7v2.1Zm0-5.7H1308v-2.1h14.7v2Zm0-5.7H1308v-2.1h14.7v2Zm0-5.7H1308V607h14.7v2.2Zm0-5.7H1308v-2.2h14.7v2.2Zm0-5.8H1308v-2h14.7v2Zm35.8 57h-4.2v-7h4.2v7Zm0-13.4h-4.2v-7h4.2v7Zm23.1-81h-4v-7h4v7Zm0-13.5h-4v-7h4v7Zm0-13.4h-4v-7h4v7Zm9.7 0h-4.1v-7h4v7Zm9.6 53.8h-4v-7h4v7Zm0-13.5h-4v-7h4v7Zm9.7 85.7h-4.1v-7h4v7Zm0-13.4h-4.1v-7h4v7Zm0-32h-4.1v-6.9h4v7Zm0-67.2h-4.1v-7h4v7Zm0-13.4h-4.1v-7h4v7Zm38.4 106.8h-4.1v-7h4v7Zm0-13.5h-4.1v-7h4v7Zm9.4-86.3h-4.1v-7h4v7Zm0-27h-4.1v-6.9h4v7Zm0-13.4h-4.1v-7h4v7Zm9.6 80.7h-4v-7h4v7Zm0-13.4h-4v-7h4v7Zm0-67.3h-4v-7h4v7Zm19.3 80.7h-4v-7h4v7Zm0-13.4h-4v-7h4v7Zm0-27h-4v-6.9h4v7Zm0-26.8h-4v-7h4v7Zm0-13.5h-4v-7h4v7Zm24.7 113.5h-15.8v-2.3h15.8v2.3Zm0-6.7h-15.8v-2.4h15.8v2.4Zm0-6.8h-15.8v-2.3h15.8v2.3Zm68 20.1v83.3h-13.6c5.1-29.8 10.2-60.6 13.6-83.3v-.4.4Zm-4.7-252.2c1 0 1.9.8 1.9 1.8v2h-3.7v-2c0-1 .8-1.8 1.8-1.8Zm-5.3-19.3c1 0 1.9.8 1.9 1.9v1.8h-3.7v-1.8c0-1 .8-1.9 1.8-1.9Zm-19.3 3.7h-3.7v-1.8c0-1 .8-1.9 1.9-1.9 1 0 1.8.8 1.8 1.9v1.8Zm5.3 19.3h-3.7V370c0-1 .8-1.9 1.8-2 1 0 2 1 2 2v1.8Zm5.3-19.3h-3.7v-1.8a1.9 1.9 0 1 1 3.7-.1v2Zm1.6 17.5c0-1 .8-1.9 1.8-1.9s2 .8 2 1.9v1.9h-3.8v-2Zm17 119.8c-5.3-36.6-14.5-91.6-16.5-104h16.6v104Zm2.6-137.3h-3.7v-1.8c0-1 .8-1.9 1.8-2 1 0 1.9 1 1.9 2v1.8Zm5.3 19.3h-3.7V370a1.9 1.9 0 1 1 3.7-.1v2Zm5.3-19.3h-3.7v-1.8c0-1 .8-1.9 1.8-2 1 0 1.9 1 1.9 2v1.8Zm22.2 346.3h-12.8v-23h9l3.8 23Zm18.3-350c1 0 1.9.8 1.9 1.8v1.9h-3.7v-1.9c0-1 .8-1.8 1.8-1.8Zm-5.3 19.3c1 0 1.9.8 1.9 1.8v1.9h-3.7v-1.9c0-1 .8-1.8 1.8-1.8Zm-7.1-17.5a1.9 1.9 0 1 1 3.7 0v2h-3.7v-2Zm-3.5 17.4c1 0 1.9.9 1.9 2v1.8h-3.7v-1.9c0-1 .8-1.8 1.8-1.9Zm-5.3-19.3c1 0 1.9.9 1.9 2v1.8h-3.7v-1.9c0-1 .8-1.8 1.8-1.9Zm-7.1 21.3a1.9 1.9 0 1 1 3.7-.1v2h-3.7v-2Zm-7 1.8h-3.6v-1.9c0-1 .8-1.8 1.8-1.8s1.9.8 1.9 1.8v2Zm1.7-21.2c0-1 .8-1.8 1.8-1.8s1.9.8 1.9 1.8v2h-3.7v-2Zm2.5 35.2h16.6c-2 12.4-11.2 67.3-16.6 104v-104Zm0 234c2.2 14.8 5 32.9 8.3 51.9h-8.3v-51.8Zm0 106v-23h13.5l4 23h-17.5Zm73.2-112H1660v-2.4h15.8v2.3Zm0-6.8H1660v-2.4h15.8v2.4Zm0-6.8H1660v-2.3h15.8v2.3Zm13-19.3h-4.1v-7h4.1v7Zm0-13.5h-4.1v-7h4.1v7Zm0-26.9h-4.1v-7h4.1v7Zm0-26.9h-4.1v-7h4.1v7Zm0-13.4h-4.1v-7h4.1v7Zm19.3 80.7h-4.1v-7h4.1v7Zm0-13.5h-4.1v-7h4.1v7Zm0-67.2h-4.1v-7h4.1v7Zm9.7 40.3h-4.1v-7h4v7Zm0-26.9h-4.1v-7h4v7Zm0-13.4h-4.1v-7h4v7Zm9.4 140.1h-4.1v-7h4v7Zm0-13.4h-4.1v-7h4v7Zm38.4 32.7h-4.1v-7h4v7Zm0-13.5h-4.1v-7h4v7Zm0-31.9h-4.1v-7h4v7Zm0-67.2h-4.1v-7h4v7Zm0-13.5h-4.1v-7h4v7Zm9.6 53.8h-4.1v-7h4.1v7Zm0-13.4h-4.1v-7h4.1v7Zm9.7-40.4h-4.1v-7h4v7Zm9.6 27h-4.1v-7h4.1v7Zm0-13.5h-4.1v-7h4.1v7Zm0-13.4h-4.1v-7h4.1v7Zm23.2 121.3h-4.1v-7h4v7Zm0-13.4h-4.1v-7h4v7ZM1864 655h-14.6v-2h14.6v2Zm0-5.7h-14.6v-2h14.6v2Zm0-5.7h-14.6v-2.1h14.6v2.1Zm0-5.7h-14.6v-2.1h14.6v2.1Zm0-5.7h-14.6v-2.1h14.6v2.1Zm0-5.7h-14.6v-2.1h14.6v2Zm0-5.7h-14.6v-2.1h14.6v2Zm0-5.7h-14.6v-2.2h14.6v2.2Zm0-5.7h-14.6v-2.2h14.6v2.2Zm0-5.8h-14.6v-2h14.6v2Zm0-5.7h-14.6v-2h14.6v2Zm34.4 55h-4.1V646h4.1v7Zm0-13.4h-4.1v-7h4.1v7Zm0-13.4h-4.1v-7h4.1v7Zm0-13.4h-4.1v-7h4.1v7Zm0-13.5h-4.1v-7h4.1v7Zm0-13.4h-4.1v-7h4.1v7Zm0-13.5h-4.1v-7h4.1v7Zm9.7 80.7h-4.2v-7h4.2v7Zm0-13.4h-4.2v-7h4.2v7Zm0-13.5h-4.2v-7h4.2v7Zm0-13.4h-4.2v-7h4.2v7Zm0-13.4h-4.2v-7h4.2v7Zm0-13.5h-4.2v-7h4.2v7Zm0-13.4h-4.2v-7h4.2v7Z"
  />
</svg>
